# xmcd
#
# Track frame offsets:
#	150
#	22922
#	47190
#	69227
#	91842
#	118184
#	141999
#	165336
#	189815
#	213840
#	236844
#	253192
#
# Disc length: 3410 seconds
#
# Revision: 0
# Processed by: cddbd v1.4PL0 Copyright (c) Steve Scherf et al.
# Submitted via: OrangeCD 4.1
#
DISCID=9d0d500c
DTITLE=Udaya and Manila Sotang - Muskan
DYEAR=1900
DGENRE=
TTITLE0=Koi bolima
TTITLE1=Maya Namara
TTITLE2=Adhi bato hinde pachhi
TTITLE3=Kahan pokhinchha
TTITLE4=Mana ko jalan
TTITLE5=Man lage
TTITLE6=Kohi manchhe gham
TTITLE7=Hawa chalyo
TTITLE8=Dui dinko
TTITLE9=Hinjo aja machhe kina
TTITLE10=Mandaina mandaina
TTITLE11=Advertisement
EXTD=
EXTT0=
EXTT1=
EXTT2=
EXTT3=
EXTT4=
EXTT5=
EXTT6=
EXTT7=
EXTT8=
EXTT9=
EXTT10=
EXTT11=
PLAYORDER=
